<svg width="81" height="36" viewBox="0 0 81 36" fill="none" xmlns="http://www.w3.org/2000/svg">
<g clip-path="url(#clip0_5726_2453)">
<path d="M73.0799 26.336C71.7519 26.336 70.5199 26.128 69.3839 25.712C68.2479 25.28 67.2639 24.672 66.4319 23.888C65.6159 23.104 64.9759 22.184 64.5119 21.128C64.0479 20.056 63.8159 18.88 63.8159 17.6C63.8159 16.32 64.0479 15.152 64.5119 14.096C64.9759 13.024 65.6239 12.096 66.4559 11.312C67.2879 10.528 68.2719 9.92801 69.4079 9.51201C70.5599 9.08001 71.8159 8.86401 73.1759 8.86401C74.7599 8.86401 76.1759 9.12801 77.4239 9.65601C78.6719 10.184 79.7039 10.944 80.5199 11.936L77.4959 14.672C76.9199 14.048 76.2959 13.584 75.6239 13.28C74.9679 12.96 74.2319 12.8 73.4159 12.8C72.6959 12.8 72.0399 12.912 71.4479 13.136C70.8559 13.36 70.3519 13.688 69.9359 14.12C69.5199 14.536 69.1919 15.04 68.9519 15.632C68.7279 16.208 68.6159 16.864 68.6159 17.6C68.6159 18.304 68.7279 18.952 68.9519 19.544C69.1919 20.136 69.5199 20.648 69.9359 21.08C70.3519 21.496 70.8479 21.824 71.4239 22.064C72.0159 22.288 72.6639 22.4 73.3679 22.4C74.0719 22.4 74.7599 22.288 75.4319 22.064C76.1039 21.824 76.7839 21.424 77.4719 20.864L80.1359 24.2C79.1759 24.888 78.0639 25.416 76.7999 25.784C75.5359 26.152 74.2959 26.336 73.0799 26.336ZM75.9359 23.576V17.24H80.1359V24.2L75.9359 23.576Z" fill="#333333"/>
<path fill-rule="evenodd" clip-rule="evenodd" d="M57 18C57 20.8737 56.4014 23.5901 55.3369 26H42C44.4627 22.2281 47 17.6606 47 13C47 7.00236 42.9385 1.95335 37.4158 0.453392C38.5681 0.156712 39.7678 0 41 0C49.8366 0 57 8.05888 57 18ZM43 13C43 8.02944 38.9706 4 34 4C27.3493 4 25 12.5071 25 18C25 27.9411 32.1634 36 41 36C45.7387 36 49.9962 33.6825 52.9259 30H34C34.3518 29.5514 34.7202 29.0891 35.0987 28.6142C38.6157 24.2012 43 18.6997 43 13Z" fill="#7859CF"/>
<path d="M0.852051 26V9.19995H8.79606C10.6521 9.19995 12.2841 9.54395 13.6921 10.232C15.1001 10.92 16.1961 11.888 16.9801 13.136C17.7801 14.384 18.1801 15.872 18.1801 17.6C18.1801 19.312 17.7801 20.8 16.9801 22.064C16.1961 23.312 15.1001 24.28 13.6921 24.968C12.2841 25.656 10.6521 26 8.79606 26H0.852051ZM5.60406 22.208H8.60406C9.56406 22.208 10.3961 22.032 11.1001 21.68C11.8201 21.312 12.3801 20.784 12.7801 20.096C13.1801 19.392 13.3801 18.56 13.3801 17.6C13.3801 16.624 13.1801 15.792 12.7801 15.104C12.3801 14.416 11.8201 13.896 11.1001 13.544C10.3961 13.176 9.56406 12.992 8.60406 12.992H5.60406V22.208Z" fill="#333333"/>
</g>
<defs>
<clipPath id="clip0_5726_2453">
<rect width="81" height="36" fill="white"/>
</clipPath>
</defs>
</svg>
