<svg width="167" height="36" viewBox="0 0 167 36" fill="none" xmlns="http://www.w3.org/2000/svg">
<g clip-path="url(#clip0_5726_2457)">
<path d="M138.08 26.336C136.752 26.336 135.52 26.128 134.384 25.712C133.248 25.28 132.264 24.672 131.432 23.888C130.616 23.104 129.976 22.184 129.512 21.128C129.048 20.056 128.816 18.88 128.816 17.6C128.816 16.32 129.048 15.152 129.512 14.096C129.976 13.024 130.624 12.096 131.456 11.312C132.288 10.528 133.272 9.92801 134.408 9.51201C135.56 9.08001 136.816 8.86401 138.176 8.86401C139.76 8.86401 141.176 9.12801 142.424 9.65601C143.672 10.184 144.704 10.944 145.52 11.936L142.496 14.672C141.92 14.048 141.296 13.584 140.624 13.28C139.968 12.96 139.232 12.8 138.416 12.8C137.696 12.8 137.04 12.912 136.448 13.136C135.856 13.36 135.352 13.688 134.936 14.12C134.52 14.536 134.192 15.04 133.952 15.632C133.728 16.208 133.616 16.864 133.616 17.6C133.616 18.304 133.728 18.952 133.952 19.544C134.192 20.136 134.52 20.648 134.936 21.08C135.352 21.496 135.848 21.824 136.424 22.064C137.016 22.288 137.664 22.4 138.368 22.4C139.072 22.4 139.76 22.288 140.432 22.064C141.104 21.824 141.784 21.424 142.472 20.864L145.136 24.2C144.176 24.888 143.064 25.416 141.8 25.784C140.536 26.152 139.296 26.336 138.08 26.336ZM140.936 23.576V17.24H145.136V24.2L140.936 23.576ZM157.101 26.336C155.757 26.336 154.517 26.12 153.381 25.688C152.245 25.256 151.253 24.648 150.405 23.864C149.573 23.064 148.925 22.136 148.461 21.08C147.997 20.024 147.765 18.864 147.765 17.6C147.765 16.336 147.997 15.176 148.461 14.12C148.925 13.064 149.573 12.144 150.405 11.36C151.253 10.56 152.245 9.94401 153.381 9.51201C154.517 9.08001 155.757 8.86401 157.101 8.86401C158.461 8.86401 159.701 9.08001 160.821 9.51201C161.957 9.94401 162.941 10.56 163.773 11.36C164.605 12.144 165.253 13.064 165.717 14.12C166.197 15.176 166.437 16.336 166.437 17.6C166.437 18.864 166.197 20.032 165.717 21.104C165.253 22.16 164.605 23.08 163.773 23.864C162.941 24.648 161.957 25.256 160.821 25.688C159.701 26.12 158.461 26.336 157.101 26.336ZM157.101 22.4C157.741 22.4 158.333 22.288 158.877 22.064C159.437 21.84 159.917 21.52 160.317 21.104C160.733 20.672 161.053 20.16 161.277 19.568C161.517 18.976 161.637 18.32 161.637 17.6C161.637 16.864 161.517 16.208 161.277 15.632C161.053 15.04 160.733 14.536 160.317 14.12C159.917 13.688 159.437 13.36 158.877 13.136C158.333 12.912 157.741 12.8 157.101 12.8C156.461 12.8 155.861 12.912 155.301 13.136C154.757 13.36 154.277 13.688 153.861 14.12C153.461 14.536 153.141 15.04 152.901 15.632C152.677 16.208 152.565 16.864 152.565 17.6C152.565 18.32 152.677 18.976 152.901 19.568C153.141 20.16 153.461 20.672 153.861 21.104C154.277 21.52 154.757 21.84 155.301 22.064C155.861 22.288 156.461 22.4 157.101 22.4Z" fill="#333333"/>
<path fill-rule="evenodd" clip-rule="evenodd" d="M122 18C122 20.8737 121.401 23.5901 120.337 26H107C109.463 22.2281 112 17.6606 112 13C112 7.00236 107.938 1.95335 102.416 0.453392C103.568 0.156712 104.768 0 106 0C114.837 0 122 8.05888 122 18ZM108 13C108 8.02944 103.971 4 99 4C92.3493 4 90 12.5071 90 18C90 27.9411 97.1634 36 106 36C110.739 36 114.996 33.6825 117.926 30H99C99.3518 29.5514 99.7202 29.0891 100.099 28.6142C103.616 24.2012 108 18.6997 108 13Z" fill="#7859CF"/>
<path d="M0.650391 26V9.19995H8.59439C10.4504 9.19995 12.0824 9.54395 13.4904 10.232C14.8984 10.92 15.9944 11.888 16.7784 13.136C17.5784 14.384 17.9784 15.872 17.9784 17.6C17.9784 19.312 17.5784 20.8 16.7784 22.064C15.9944 23.312 14.8984 24.28 13.4904 24.968C12.0824 25.656 10.4504 26 8.59439 26H0.650391ZM5.40239 22.208H8.40239C9.36239 22.208 10.1944 22.032 10.8984 21.68C11.6184 21.312 12.1784 20.784 12.5784 20.096C12.9784 19.392 13.1784 18.56 13.1784 17.6C13.1784 16.624 12.9784 15.792 12.5784 15.104C12.1784 14.416 11.6184 13.896 10.8984 13.544C10.1944 13.176 9.36239 12.992 8.40239 12.992H5.40239V22.208ZM20.9586 26V9.19995H28.6386C30.1746 9.19995 31.4946 9.44795 32.5986 9.94395C33.7186 10.44 34.5826 11.16 35.1906 12.104C35.7986 13.032 36.1026 14.136 36.1026 15.416C36.1026 16.68 35.7986 17.776 35.1906 18.704C34.5826 19.616 33.7186 20.32 32.5986 20.816C31.4946 21.296 30.1746 21.536 28.6386 21.536H23.5986L25.7106 19.544V26H20.9586ZM31.3506 26L27.1746 19.88H32.2386L36.4386 26H31.3506ZM25.7106 20.048L23.5986 17.864H28.3506C29.3426 17.864 30.0786 17.648 30.5586 17.216C31.0546 16.784 31.3026 16.184 31.3026 15.416C31.3026 14.632 31.0546 14.024 30.5586 13.592C30.0786 13.16 29.3426 12.944 28.3506 12.944H23.5986L25.7106 10.76V20.048ZM39.2042 26V9.19995H43.9562V26H39.2042ZM47.817 26V9.19995H51.729L60.993 20.384H59.145V9.19995H63.801V26H59.889L50.625 14.816H52.473V26H47.817ZM71.8809 22.28L71.6169 16.952L78.8409 9.19995H84.0729L76.8729 17L74.2329 19.76L71.8809 22.28ZM67.6329 26V9.19995H72.3369V26H67.6329ZM78.9129 26L73.4409 19.064L76.5369 15.752L84.4329 26H78.9129Z" fill="#333333"/>
</g>
<defs>
<clipPath id="clip0_5726_2457">
<rect width="167" height="36" fill="white"/>
</clipPath>
</defs>
</svg>
